<?xml version="1.0" encoding="UTF-8"?>
<svg id="_图层_1" data-name="图层_1" xmlns="http://www.w3.org/2000/svg" version="1.1" viewBox="0 0 800 800">
  <!-- Generator: Adobe Illustrator 29.8.2, SVG Export Plug-In . SVG Version: 2.1.1 Build 3)  -->
  <defs>
    <style>
      .st0 {
        fill: #da332b;
      }

      .st1 {
        fill: #393e42;
      }
    </style>
  </defs>
  <path class="st0" d="M388.87,668.22c-135.96-4.92-253.65-111.58-257.07-265.01,0-.82-.09-1.73,0-2.55H50.1c4.41,199.92,148.82,344.59,349.38,349.24v-81.5c-3.51,0-7.02,0-10.62-.18Z"/>
  <path class="st1" d="M749.95,407.04c-3.15,190.98-162.68,344.32-343.99,342.95-2.16,0-4.32-.09-6.48-.09v-81.5c180.23.82,269.12-151.05,267.68-268.47,3.15-115.05-92.32-268.01-266.24-267.1-151.34.82-271.19,116.14-269.12,267.83H50.1c0-2.01-.09-4.01-.09-6.02C48.3,193.72,223.58,44.68,402.01,50.15c196.69.18,351.18,155.7,347.94,356.9Z"/>
</svg>