<?xml version="1.0" encoding="UTF-8"?>
<svg id="_图层_1" data-name="图层_1" xmlns="http://www.w3.org/2000/svg" version="1.1" viewBox="0 0 800 800">
  <!-- Generator: Adobe Illustrator 29.8.2, SVG Export Plug-In . SVG Version: 2.1.1 Build 3)  -->
  <defs>
    <style>
      .st0 {
        fill: #da332b;
      }

      .st1 {
        fill: #393e42;
      }
    </style>
  </defs>
  <g>
    <path class="st1" d="M239.51,454.31c1.33-18.91,3.58-45.99,4.95-64.02.37-4.85.65-9.7.99-14.83,1.62,1.15,2,2.5,2.56,3.75,7.28,16.46,14.61,32.91,21.86,49.39,3.82,8.66,3.76,8.56,13.25,8.37,2.93-.06,4.4-.96,5.57-3.68,6.94-16.15,14.05-32.22,21.19-48.29,1.27-2.85,2.11-5.96,4.85-9.12.21,1.68.35,2.48.41,3.29,1.59,22.56,3.06,52.13,5.21,75.13h17.42c-.5-5.4-.88-15.16-1.23-19.14-2.51-28.7-4.66-60.89-7.06-89.7h-20.41c-8.66,19.91-17.88,43.32-26.73,63.14-.56,1.26-.6,3.01-2.54,3.57-.62-1.13-1.3-2.18-1.79-3.31-7.75-17.61-16.39-38.34-23.66-56.16-.93-2.27-1.59-5.06-2.65-7.24h-20.74c-.14.86-.24,1.93-.36,3.28-2.72,30.73-5.97,74.66-8.62,105.56h17.53Z"/>
    <path class="st0" d="M92.53,451.77c-26.37-.94-49.19-21.2-49.85-50.35,0-.16-.02-.33,0-.49h-15.84c.86,37.98,28.86,65.47,67.76,66.36v-15.48c-.68,0-1.36,0-2.06-.03Z"/>
    <path class="st1" d="M162.55,402.15c-.61,36.29-31.55,65.42-66.71,65.16-.42,0-.84-.02-1.26-.02v-15.48c34.95.16,52.19-28.7,51.91-51.01.61-21.86-17.9-50.92-51.63-50.75-29.35.16-52.59,22.07-52.19,50.89h-15.84c0-.38-.02-.76-.02-1.14-.33-38.17,33.66-66.49,68.26-65.45,38.14.03,68.11,29.58,67.48,67.81Z"/>
    <path class="st0" d="M591.46,451.7c-7.03-11.33-15.77-25.34-22.98-36.56-1.83-2.82-1.73-4,1.57-5.33,8.74-3.53,14.64-9.86,17.64-18.84,5.9-17.68-1.12-42.57-29.11-45.05-16.04-1.44-32.12-.31-48.18-.76-3.58-.1-4.4,1.09-4.38,4.47.12,26.08.05,52.17.03,78.24,0,5.61.42,16.84.42,24.23h17.57c-.09-10.57-.24-25.05-.33-33.84-.05-3.52.91-5.02,4.69-4.83,5.03.24,10.09.31,15.08-.12,3.56-.29,5.2,1.18,6.81,4,6.18,10.79,14.34,24.09,20.73,34.8h20.68c-.09-.12-.17-.26-.24-.38ZM554.4,397.61c-9.07.31-18.15.29-27.22.54-2.22.05-2.97-.81-2.93-2.91.07-5.27.02-10.53.02-15.8h-.14c0-5.01.05-9.99-.03-14.98-.03-2.32.51-3.62,3.26-3.52,9.34.36,18.72.24,28.04.88,10.56.71,16.45,7.78,16.14,18.41-.3,9.94-7.14,17.01-17.14,17.37Z"/>
    <path class="st0" d="M776.53,341h-17.24c.14,11.97.02,29.77.05,40.18,0,.92.44,2.18-.54,2.68-1.38.69-1.95-.78-2.53-1.56-9.86-12.94-35.49-15.02-49.42,3-13.07,16.9-12.42,41.5,1.22,57.92,11.38,13.68,35.88,16.59,49.03.95.44-.52.84-1.13,2.2-.87.17,1.63.1,6.18.23,8.94l17.27.05c-.16-31.56-.28-111.3-.28-111.3ZM757.62,425.18c-2.76,8.97-9.44,14.12-18.65,14.69-9.06.55-17.76-4.43-21.04-12.78-3.84-9.75-4.55-19.66,1.27-29.06,4.12-6.62,10.1-10.12,18.11-9.8,9.75.05,17.05,5.07,20.05,14.5,2.34,7.38,2.57,15,.26,22.46Z"/>
    <path class="st1" d="M435.33,401c-3.66-14.34-12.46-24.18-27.17-27.52-14.2-3.22-27.62-.69-37.73,10.32-11.94,13.01-14.85,28.58-9.32,45.29,5.18,15.66,17.17,23.43,33.07,25.39,12.63,1.56,24.46-.99,34.43-9.42,4.17-3.53,4-4.26-.24-7.48-1.45-1.09-3-2.1-4.22-3.39-1.87-1.97-3.23-1.7-5.25,0-7.38,6.2-16.19,7.48-25.27,5.47-8.11-1.78-13.8-6.89-16.33-15.09-.87-2.81-.51-4,2.86-3.93,8.79.19,17.61.07,26.4.07v.07c8.81,0,17.61-.14,26.4.07,2.77.07,3.66-.99,3.93-3.39.63-5.59-.17-11.09-1.55-16.45ZM416.62,409.11c-5.99-.03-11.99,0-17.97,0-5.86-.02-11.73-.12-17.57.02-3.68.09-4.5-1.28-3.7-4.8,2.51-10.81,10.94-17.16,22.93-16.9,9.56.19,17.43,7.69,19.26,18.12.45,2.6-.38,3.59-2.95,3.57Z"/>
    <path class="st0" d="M682.62,416.45c-.19-2.91-.4-5.8-.72-8.69-3-28.37-27.83-40.39-49.24-34.05-25.62,7.6-36.82,43.44-20.66,65.73,12.7,17.53,43.38,20.82,60.95,6.56,5.65-4.59,5.65-4.69-.26-9.06-1.12-.83-2.29-1.59-3.33-2.51-1.64-1.4-3.02-1.33-4.8-.02-4.33,3.15-9.14,5.3-14.48,6.18-11.97,1.96-23.71-4.83-27.03-15.42-1.05-3.34-.35-4.56,3.3-4.49,8.65.16,17.31.05,25.98.03,8.65,0,17.31-.16,25.96.09,3.47.09,4.54-1.35,4.33-4.36ZM662.4,409.02c-6.14-.03-12.3-.02-18.44-.02v.12c-6,0-12.02-.09-18.03.03-2.97.07-3.96-.94-3.54-3.93,1.48-10.6,11.03-18.26,22.65-17.98,11.17.24,19.37,7.85,20.47,18.71.26,2.68-1.01,3.07-3.11,3.07Z"/>
    <path class="st1" d="M476.62,413.95c0-9.89.03-28.59.02-39.09h-16.93c.08,19.42.57,56.26.66,77.22h16.79c-.19-12.01-.5-28.67-.5-38.13h-.04Z"/>
  </g>
  <rect class="st1" x="459.72" y="347.54" width="16.94" height="16.82"/>
</svg>